<svg width="154.599" height="40" viewBox="0 0 154.599 40" fill="none" xmlns="http://www.w3.org/2000/svg">
<g id="Group 27">
<g id="Group 26">
<g id="MARKDOWN">
<path d="M54.3004 27.4135H55.8648L59.392 35.6766L62.8764 27.4135H64.4124V37.3691H63.2035V29.5184L59.904 37.3691H58.8088L55.5093 29.5184V37.3691H54.3004V27.4135Z" fill="#001A72"/>
<path d="M68.3261 37.3691L72.1234 27.4135H73.5883L77.3714 37.3691H76.0487L74.9963 34.6811H70.6585L69.6061 37.3691H68.3261ZM71.0283 33.5575H74.6265L72.8203 28.7646L71.0283 33.5575Z" fill="#001A72"/>
<path d="M85.1041 27.4135C85.7583 27.4135 86.3272 27.5415 86.8392 27.7975C87.337 28.0535 87.721 28.4091 88.0054 28.8642C88.2756 29.3193 88.4178 29.8597 88.4178 30.4713C88.4178 31.1682 88.2187 31.7655 87.8347 32.2775C87.4507 32.7895 86.9387 33.1308 86.2987 33.3015L88.5316 37.3691H87.1378L85.0756 33.5433H82.5298V37.3691H81.2925V27.4135H85.1041ZM82.5298 32.4055H85.0045C85.6587 32.4055 86.1707 32.2348 86.569 31.8793C86.953 31.538 87.1521 31.0686 87.1521 30.4713C87.1521 29.9024 86.953 29.4331 86.569 29.0775C86.1707 28.7362 85.6587 28.5513 85.0187 28.5513H82.5298V32.4055Z" fill="#001A72"/>
<path d="M92.7816 27.4135H94.019V33.0597L99.0394 27.4135H100.547L96.9061 31.6091L100.831 37.3691H99.3523L95.9958 32.5477L94.019 34.7806V37.3691H92.7816V27.4135Z" fill="#001A72"/>
<path d="M104.646 27.4135H107.59C108.614 27.4135 109.496 27.6268 110.249 28.0393C111.003 28.4517 111.586 29.0348 111.984 29.7744C112.383 30.5282 112.596 31.3957 112.596 32.3913C112.596 33.3868 112.383 34.2544 111.984 35.0082C111.586 35.762 111.003 36.3451 110.249 36.7575C109.496 37.17 108.614 37.3691 107.59 37.3691H104.646V27.4135ZM107.59 36.2313C108.77 36.2313 109.695 35.89 110.349 35.1931C111.003 34.5104 111.33 33.5717 111.33 32.3913C111.33 31.2108 111.003 30.2722 110.349 29.5895C109.695 28.9068 108.784 28.5513 107.59 28.5513H105.883V36.2313H107.59Z" fill="#001A72"/>
<path d="M125.473 34.994C125.075 35.762 124.506 36.3735 123.795 36.8002C123.07 37.2411 122.245 37.4544 121.335 37.4544C120.41 37.4544 119.585 37.2411 118.874 36.8002C118.149 36.3735 117.58 35.762 117.182 34.994C116.784 34.226 116.585 33.3584 116.585 32.3913C116.585 31.4242 116.784 30.5566 117.182 29.7886C117.58 29.0206 118.149 28.4233 118.874 27.9824C119.585 27.5557 120.41 27.3282 121.335 27.3282C122.245 27.3282 123.07 27.5557 123.795 27.9824C124.506 28.4233 125.075 29.0206 125.473 29.7886C125.872 30.5566 126.085 31.4242 126.085 32.3913C126.085 33.3584 125.872 34.226 125.473 34.994ZM118.291 34.4251C118.576 35.0224 118.988 35.4775 119.514 35.8188C120.041 36.1602 120.652 36.3166 121.335 36.3166C122.017 36.3166 122.615 36.1602 123.141 35.8188C123.667 35.4775 124.08 35.0224 124.378 34.4251C124.663 33.8277 124.819 33.1593 124.819 32.3913C124.819 31.6375 124.663 30.9691 124.378 30.3717C124.08 29.7744 123.667 29.3193 123.141 28.978C122.615 28.6366 122.017 28.466 121.335 28.466C120.652 28.466 120.041 28.6366 119.514 28.978C118.988 29.3193 118.576 29.7744 118.291 30.3717C117.993 30.9691 117.85 31.6375 117.85 32.3913C117.85 33.1593 117.993 33.8277 118.291 34.4251Z" fill="#001A72"/>
<path d="M129.43 27.4135H130.724L133.057 35.7762L135.503 27.4135H136.755L139.115 35.7762L141.462 27.4135H142.742L139.827 37.3691H138.347L136.072 29.4757L133.811 37.3691H132.331L129.43 27.4135Z" fill="#001A72"/>
<path d="M146.905 37.3691V27.4135H148.043L153.39 35.0935V27.4135H154.599V37.3691H153.461L148.114 29.6891V37.3691H146.905Z" fill="#001A72"/>
</g>
<g id="Enriched">
<path d="M54.2222 2.64533H65.5964V5.184H57.0844V10.0124H64.1031V12.4764H57.0844V17.5289H65.8951V20.0676H54.2222V2.64533Z" fill="#001A72"/>
<path d="M78.8741 8.56889C79.8199 9.51467 80.3176 11.008 80.3176 13.0489V20.0676H77.6047V13.1982C77.6047 12.0036 77.331 11.0827 76.8332 10.4356C76.3105 9.81333 75.5639 9.48978 74.5683 9.48978C73.4981 9.48978 72.6519 9.86311 72.0545 10.6098C71.4572 11.3564 71.1585 12.352 71.1585 13.6462V20.0676H68.4705V7.32444H70.8101L71.1087 8.992C72.0545 7.79733 73.4234 7.17511 75.1905 7.17511C76.6839 7.17511 77.9283 7.648 78.8741 8.56889Z" fill="#001A72"/>
<path d="M90.3035 7.32444V9.83822H89.1089C87.9889 9.83822 87.1924 10.2116 86.6946 10.9333C86.1969 11.6551 85.948 12.576 85.948 13.6711V20.0676H83.26V7.32444H85.6493L85.948 9.24089C86.2964 8.64356 86.7693 8.19556 87.3666 7.84711C87.9391 7.49867 88.7106 7.32444 89.7062 7.32444H90.3035Z" fill="#001A72"/>
<path d="M95.0215 2.69511C95.3202 2.99378 95.4944 3.392 95.4944 3.84C95.4944 4.31289 95.3202 4.71111 95.0215 5.00978C94.698 5.30844 94.2997 5.45778 93.8517 5.45778C93.3789 5.45778 92.9806 5.30844 92.682 5.00978C92.3584 4.71111 92.2091 4.31289 92.2091 3.84C92.2091 3.392 92.3584 2.99378 92.682 2.69511C92.9806 2.39644 93.3789 2.22222 93.8517 2.22222C94.2997 2.22222 94.698 2.39644 95.0215 2.69511ZM92.5078 7.32444H95.1957V20.0676H92.5078V7.32444Z" fill="#001A72"/>
<path d="M108.16 18.9724C107.114 19.8187 105.795 20.2169 104.202 20.2169C102.933 20.2169 101.813 19.968 100.867 19.4204C99.8964 18.8729 99.1498 18.1013 98.6271 17.1058C98.1044 16.1102 97.8556 14.9653 97.8556 13.6711C97.8556 12.3769 98.1044 11.2569 98.652 10.2613C99.1747 9.29067 99.9213 8.544 100.892 7.99644C101.863 7.44889 102.983 7.17511 104.277 7.17511C105.87 7.17511 107.164 7.59822 108.184 8.44445C109.18 9.29067 109.827 10.4107 110.076 11.8542H107.313C107.114 11.1324 106.766 10.56 106.218 10.112C105.671 9.68889 104.999 9.46489 104.202 9.46489C103.107 9.46489 102.236 9.86311 101.589 10.6347C100.942 11.4311 100.618 12.4267 100.618 13.6711C100.618 14.9404 100.942 15.9609 101.589 16.7573C102.236 17.5538 103.107 17.9271 104.202 17.9271C105.024 17.9271 105.72 17.728 106.268 17.28C106.816 16.832 107.164 16.2347 107.338 15.488H110.076C109.827 16.9813 109.18 18.1262 108.16 18.9724Z" fill="#001A72"/>
<path d="M123.133 8.56889C124.078 9.51467 124.576 11.008 124.576 13.0489V20.0676H121.888V13.1982C121.888 12.0036 121.614 11.0827 121.092 10.4356C120.569 9.81333 119.822 9.48978 118.827 9.48978C117.757 9.48978 116.91 9.86311 116.313 10.6098C115.716 11.3564 115.417 12.352 115.417 13.6213V20.0676H112.729V2.64533H115.417V9.16622C116.363 7.84711 117.707 7.17511 119.424 7.17511C120.942 7.17511 122.187 7.648 123.133 8.56889Z" fill="#001A72"/>
<path d="M127.817 10.2862C128.34 9.29067 129.062 8.544 130.007 7.99644C130.953 7.44889 132.023 7.17511 133.243 7.17511C134.462 7.17511 135.533 7.424 136.478 7.92178C137.424 8.41956 138.146 9.14133 138.694 10.0373C139.241 10.9582 139.515 12.0284 139.54 13.248C139.54 13.5964 139.515 13.92 139.465 14.2684H129.858V14.4178C129.908 15.5378 130.256 16.4089 130.903 17.056C131.526 17.7031 132.372 18.0267 133.417 18.0267C134.238 18.0267 134.935 17.8524 135.508 17.4542C136.055 17.056 136.429 16.5084 136.628 15.7867H139.316C139.067 17.0809 138.445 18.1511 137.424 18.9724C136.404 19.8187 135.134 20.2169 133.616 20.2169C132.272 20.2169 131.127 19.968 130.132 19.4204C129.136 18.8729 128.39 18.1262 127.842 17.1307C127.294 16.16 127.046 15.0151 127.046 13.7209C127.046 12.4267 127.294 11.2818 127.817 10.2862ZM136.802 12.3022C136.678 11.3813 136.304 10.6596 135.682 10.1369C135.06 9.61422 134.288 9.34044 133.342 9.34044C132.446 9.34044 131.7 9.61422 131.053 10.1618C130.406 10.7093 130.057 11.4062 129.958 12.3022H136.802Z" fill="#001A72"/>
<path d="M154.58 2.64533V20.0676H152.241L151.917 18.1511C150.897 19.5449 149.503 20.2169 147.761 20.2169C146.591 20.2169 145.546 19.968 144.65 19.4453C143.729 18.9227 143.007 18.176 142.509 17.1804C141.987 16.1849 141.738 15.04 141.738 13.696C141.738 12.4018 141.987 11.2818 142.509 10.2862C143.032 9.29067 143.754 8.544 144.675 7.99644C145.571 7.44889 146.616 7.17511 147.761 7.17511C148.682 7.17511 149.503 7.34933 150.2 7.69778C150.897 8.04622 151.444 8.49422 151.892 9.09156V2.64533H154.58ZM150.897 16.7822C151.569 16.0107 151.917 14.9902 151.917 13.7458C151.917 12.4764 151.569 11.456 150.897 10.6596C150.2 9.86311 149.304 9.46489 148.209 9.46489C147.089 9.46489 146.193 9.86311 145.521 10.6596C144.824 11.456 144.5 12.4516 144.5 13.696C144.5 14.9653 144.824 15.9858 145.521 16.7822C146.193 17.5787 147.089 17.952 148.209 17.952C149.304 17.952 150.2 17.5787 150.897 16.7822Z" fill="#001A72"/>
</g>
</g>
<path id="Rectangle 149" d="M0 8C0 5.05448 2.38781 2.66667 5.33333 2.66667H29.3333C32.2789 2.66667 34.6667 5.05448 34.6667 8V32C34.6667 34.9455 32.2789 37.3333 29.3333 37.3333H5.33333C2.38781 37.3333 0 34.9455 0 32V8Z" fill="#85D6A5"/>
<path id="Union" d="M29.3333 0C32.1069 0 34.5501 1.41182 35.9852 3.55556H36.0148C37.4499 1.41182 39.8931 0 42.6667 0H43.5556V2.66667H42.6667C39.7211 2.66667 37.3333 5.05448 37.3333 8V18.6667H40V21.3333H37.3333V32C37.3333 34.9455 39.7211 37.3333 42.6667 37.3333H43.5556V40H42.6667C39.8931 40 37.4499 38.5882 36.0148 36.4444H35.9852C34.5501 38.5882 32.1069 40 29.3333 40H28.4444V37.3333H29.3333C32.2789 37.3333 34.6667 34.9455 34.6667 32V21.3333H32V18.6667H34.6667V8C34.6667 5.05448 32.2789 2.66667 29.3333 2.66667H28.4444V0H29.3333Z" fill="#001A72"/>
<path id="Union_2" d="M27.3333 14.6667H30.8889L26 20.4444L21.1111 14.6667H24.6528V8H27.3333V14.6667Z" fill="#001A72"/>
<path id="Union_3" d="M8 8.00434L12 12.8889L16 8.00434V8H18.6667V20.4444H16V12.2899L12 17.1111L8 12.2899V20.4444H5.33333V8H8V8.00434Z" fill="#001A72"/>
</g>
</svg>
